<svg width="48" height="48" viewBox="0 0 48 48" fill="none" xmlns="http://www.w3.org/2000/svg">
<path d="M41.0061 6.97498C38.7917 4.75687 36.1572 2.99824 33.2553 1.80097C30.3534 0.603704 27.2417 -0.00840964 24.1004 8.7261e-05C17.7661 0.0080229 11.6933 2.51604 7.21331 6.97438C2.73331 11.4327 0.211606 17.4776 0.200971 23.784C0.195764 27.9578 1.29586 32.0593 3.39038 35.6749L0 48L12.6612 44.6926C16.1652 46.5934 20.0919 47.5895 24.0823 47.5898H24.0924C30.4283 47.5835 36.5031 45.0759 40.9848 40.6171C45.4665 36.1582 47.9893 30.1119 47.9999 23.804C48.0095 20.6778 47.3964 17.5808 46.1959 14.6921C44.9954 11.8035 43.2315 9.18049 41.0061 6.97498Z" fill="white"/>
<path d="M43.9644 23.802C43.9543 29.0434 41.858 34.0671 38.1348 37.7727C34.4116 41.4783 29.365 43.5638 24.1004 43.5722C20.5427 43.5726 17.0504 42.6203 13.9895 40.8151L13.264 40.3869L5.74571 42.3497L7.75542 35.0547L7.28314 34.3064C5.29161 31.156 4.23733 27.5084 4.24245 23.786C4.25361 18.545 6.35059 13.5221 10.0741 9.81723C13.7976 6.11241 18.8442 4.02774 24.1084 4.01981C26.7184 4.01472 29.3034 4.52492 31.714 5.52089C34.1246 6.51686 36.3129 7.97883 38.1523 9.82222C40.0007 11.6546 41.466 13.8335 42.4636 16.233C43.4612 18.6325 43.9713 21.2051 43.9644 23.802Z" fill="#00C853"/>
<path fill-rule="evenodd" clip-rule="evenodd" d="M18.1276 13.8419C17.6795 12.8415 17.2092 12.8315 16.7831 12.8134C16.4355 12.7994 16.0375 12.7994 15.6396 12.7994C15.3369 12.8082 15.0393 12.8788 14.7651 13.0069C14.491 13.1349 14.2462 13.3176 14.0459 13.5437C13.4993 14.144 11.9558 15.5766 11.9558 18.5018C11.9558 21.427 14.0961 24.2542 14.3956 24.6504C14.695 25.0465 18.5255 31.2411 24.5949 33.6241C29.6392 35.6049 30.6662 35.2107 31.7615 35.1107C32.8568 35.0107 35.2946 33.6741 35.793 32.2855C36.2914 30.8969 36.2894 29.7085 36.1406 29.4583C35.9919 29.2082 35.594 29.0582 34.9951 28.7661C34.3962 28.4739 31.462 27.0293 30.9154 26.8313C30.3688 26.6332 29.9688 26.5331 29.5709 27.1294C29.173 27.7256 28.0295 29.0622 27.6818 29.4583C27.3341 29.8545 26.9844 29.9065 26.3875 29.6084C25.7906 29.3103 23.8674 28.684 21.5843 26.6572C20.2794 25.4557 19.1599 24.0688 18.2623 22.5415C17.9146 21.9412 18.2261 21.6251 18.5256 21.327C18.7928 21.0609 19.1285 20.6347 19.4219 20.2865C19.6693 19.9831 19.8723 19.6463 20.0248 19.2861C20.1039 19.1219 20.1407 18.9406 20.132 18.7586C20.1232 18.5766 20.0691 18.3997 19.9745 18.2437C19.8178 17.9576 18.6582 15.0244 18.1276 13.8419Z" fill="white"/>
</svg>
